<?xml version="1.0" standalone="no"?>
<!DOCTYPE svg PUBLIC "-//W3C//DTD SVG 20010904//EN"
 "http://www.w3.org/TR/2001/REC-SVG-20010904/DTD/svg10.dtd">
<svg version="1.0" xmlns="http://www.w3.org/2000/svg"
 width="509.000000pt" height="490.000000pt" viewBox="0 0 509.000000 490.000000"
 preserveAspectRatio="xMidYMid meet">

<g transform="translate(0.000000,490.000000) scale(0.100000,-0.100000)"
fill="#000000" stroke="none">
<path d="M2485 4508 c-14 -46 -29 -89 -31 -95 -3 -7 1 -13 10 -13 9 0 21 11
26 25 8 20 16 25 44 25 25 0 38 -6 46 -20 6 -11 17 -20 25 -20 19 0 19 -3 -9
56 -13 27 -29 66 -37 87 -22 63 -44 50 -74 -45z m63 10 c13 -36 14 -33 -15
-42 -25 -8 -29 6 -17 52 9 30 17 28 32 -10z"/>
<path d="M2725 4574 c-24 -25 -14 -56 28 -83 39 -26 48 -55 21 -65 -9 -4 -27
0 -40 9 -29 18 -45 0 -18 -20 42 -32 104 -11 104 35 0 24 -8 35 -40 55 -41 26
-51 49 -25 59 18 6 45 -2 45 -15 0 -5 5 -9 10 -9 16 0 11 37 -6 44 -28 11 -62
6 -79 -10z"/>
<path d="M2230 4551 c0 -6 4 -12 9 -15 5 -3 12 -32 15 -63 10 -83 14 -93 40
-93 52 0 86 12 86 31 0 19 -26 27 -32 10 -1 -5 -15 -12 -29 -16 -26 -6 -27 -5
-33 47 -12 96 -16 108 -37 108 -10 0 -19 -4 -19 -9z"/>
<path d="M3073 4525 c4 -8 -1 -40 -9 -72 -14 -54 -14 -59 4 -83 14 -18 30 -26
59 -28 48 -4 60 8 78 80 8 29 19 54 25 56 17 6 11 19 -10 25 -16 4 -22 -2 -30
-36 -24 -92 -44 -116 -83 -101 -25 9 -28 34 -12 92 18 59 15 82 -11 82 -10 0
-14 -5 -11 -15z"/>
<path d="M2036 4508 c-3 -7 -7 -41 -10 -76 -3 -34 -9 -74 -12 -87 -9 -36 15
-32 29 5 15 40 65 56 85 28 12 -17 42 -26 42 -12 0 3 -23 39 -52 80 -49 70
-74 89 -82 62z m49 -58 c19 -37 19 -37 -10 -42 -22 -5 -25 -2 -25 27 0 28 6
45 16 45 2 0 10 -13 19 -30z"/>
<path d="M1825 4456 c-36 -14 -61 -29 -63 -39 -4 -22 15 -22 36 -1 14 15 17
15 27 1 6 -9 20 -43 31 -76 10 -34 25 -61 31 -61 17 0 17 6 -11 88 -14 39 -21
74 -16 77 5 3 21 3 36 -1 23 -6 26 -4 21 10 -4 10 -7 20 -7 22 0 8 -26 2 -85
-20z"/>
<path d="M3325 4388 c-16 -40 -35 -78 -43 -84 -13 -9 -11 -12 7 -17 23 -6 24
-4 63 93 9 22 13 16 30 -57 12 -50 25 -83 33 -83 7 0 23 28 35 63 13 34 32 69
42 77 21 17 15 30 -13 30 -10 0 -21 -10 -25 -22 -3 -12 -13 -37 -22 -57 l-15
-36 -21 79 c-12 44 -26 81 -32 83 -6 2 -23 -29 -39 -69z"/>
<path d="M1607 4423 c-4 -3 -7 -13 -7 -22 1 -13 3 -13 11 2 11 19 8 33 -4 20z"/>
<path d="M1598 4367 c-26 -12 -46 -26 -44 -32 2 -5 8 -9 13 -8 6 1 23 -27 38
-63 15 -36 34 -68 41 -71 7 -2 33 5 58 16 33 14 44 24 40 35 -8 20 -34 21 -34
1 0 -20 -50 -32 -61 -14 -15 24 -10 39 16 51 32 14 22 30 -11 18 -30 -12 -40
-8 -47 20 -6 23 21 43 51 38 10 -2 17 3 17 12 0 22 -24 21 -77 -3z"/>
<path d="M3599 4352 c-1 -4 0 -11 1 -17 3 -18 -54 -125 -67 -125 -22 0 -14
-20 13 -30 34 -13 37 -13 30 6 -7 19 51 137 64 129 6 -3 10 0 10 8 0 14 -49
42 -51 29z"/>
<path d="M1380 4249 c-39 -25 -42 -30 -25 -34 12 -4 35 -33 55 -71 18 -35 37
-64 40 -64 16 0 18 15 5 40 -13 26 -12 28 16 49 34 25 39 69 11 94 -26 24 -50
20 -102 -14z m88 -31 c2 -19 -3 -30 -18 -38 -12 -6 -23 -10 -24 -8 -36 54 -36
57 -18 67 30 18 57 9 60 -21z"/>
<path d="M3740 4262 c0 -10 -16 -42 -35 -72 -19 -30 -35 -61 -35 -68 0 -7 20
-22 45 -34 53 -26 86 -19 118 24 40 53 17 117 -55 154 -35 18 -38 18 -38 -4z
m80 -63 c21 -38 -15 -99 -57 -99 -13 0 -33 5 -44 10 -18 10 -18 12 -3 43 35
69 54 88 74 77 11 -6 24 -20 30 -31z"/>
<path d="M2537 4192 c5 -22 48 -19 57 4 4 10 -4 14 -28 14 -28 0 -33 -3 -29
-18z"/>
<path d="M2464 4070 c0 -63 1 -89 3 -57 2 31 2 83 0 115 -2 31 -3 5 -3 -58z"/>
<path d="M2005 4103 c-56 -23 -102 -59 -121 -96 l-17 -32 36 32 c40 35 119 63
177 63 19 0 59 -6 88 -14 29 -7 52 -10 51 -7 0 3 -18 21 -41 39 -33 26 -49 32
-87 31 -25 0 -64 -7 -86 -16z"/>
<path d="M3942 4055 c-40 -25 -77 -45 -83 -45 -8 0 -8 -4 0 -14 9 -11 18 -12
41 -3 39 15 72 -13 68 -56 -6 -63 19 -33 45 53 25 84 27 110 9 110 -4 0 -40
-20 -80 -45z m57 -29 c-15 -41 -16 -41 -44 -20 -14 11 -16 18 -8 21 7 2 23 13
35 23 30 24 33 19 17 -24z"/>
<path d="M1115 4068 c-76 -44 -45 -120 39 -97 27 8 41 7 51 -1 20 -16 3 -46
-30 -54 -29 -7 -34 -26 -6 -26 29 0 71 39 71 65 0 38 -37 57 -84 44 -28 -8
-42 -7 -49 0 -15 15 4 46 29 47 34 2 37 4 24 19 -15 18 -19 18 -45 3z"/>
<path d="M3036 4063 c-6 -14 -5 -15 5 -6 7 7 10 15 7 18 -3 3 -9 -2 -12 -12z"/>
<path d="M2917 4043 c-4 -3 -7 -20 -6 -37 l1 -31 9 34 c10 33 8 47 -4 34z"/>
<path d="M2700 4023 c0 -5 17 -16 38 -26 l37 -17 -30 25 c-30 25 -45 31 -45
18z"/>
<path d="M3005 3985 c-24 -23 -35 -52 -15 -40 13 8 53 65 45 65 -3 0 -17 -11
-30 -25z"/>
<path d="M3085 3953 c-16 -8 -43 -36 -60 -62 -26 -39 -165 -159 -187 -161 -5
0 -8 18 -8 40 0 34 -3 40 -21 40 -12 0 -23 -8 -26 -20 -3 -11 -9 -20 -14 -20
-8 0 14 87 25 98 3 3 6 -7 6 -22 0 -18 5 -26 13 -24 21 8 19 47 -4 80 l-23 31
-11 -49 c-16 -70 -31 -94 -61 -94 -17 0 -27 -8 -34 -24 -6 -18 -22 -28 -52
-36 -125 -34 -155 -54 -124 -85 13 -13 24 -14 79 -4 44 8 80 9 120 2 51 -9 58
-8 56 6 -1 9 -1 27 0 40 l1 24 23 -20 c12 -11 32 -24 43 -27 21 -6 91 -106 75
-106 -5 0 -7 -8 -4 -19 4 -16 0 -18 -24 -13 -27 5 -28 4 -10 -15 17 -20 17
-20 -34 -7 -29 8 -54 12 -56 10 -2 -2 15 -15 37 -30 22 -14 40 -31 40 -37 0
-6 14 -24 31 -40 25 -23 27 -29 13 -29 -16 0 -16 -2 3 -22 11 -13 18 -29 16
-36 -7 -17 73 -52 123 -52 22 0 48 6 58 13 16 12 14 17 -23 72 -39 60 -54 72
-121 107 -29 15 -31 18 -11 18 18 0 21 4 16 21 -4 12 -18 37 -31 56 -25 37
-30 53 -16 53 17 0 93 -31 124 -50 18 -11 38 -20 43 -20 6 1 -1 7 -15 15 -18
10 -20 14 -8 15 9 0 21 6 25 14 4 8 26 16 47 18 22 2 41 9 42 16 1 7 0 8 -3 2
-2 -5 -26 -9 -51 -9 -38 2 -41 3 -17 7 28 6 27 6 -15 12 -34 5 -25 7 37 6 45
-1 85 -5 89 -9 4 -4 19 -7 33 -7 30 0 19 12 -27 30 -18 7 -48 28 -66 46 -34
34 -61 45 -54 22 3 -7 13 -15 24 -17 23 -4 44 -20 44 -34 0 -6 -20 -7 -55 -3
-30 3 -55 2 -55 -2 0 -5 -28 -9 -61 -9 -34 -1 -57 2 -52 6 5 3 12 13 15 22 6
16 121 89 141 89 7 0 20 7 30 14 16 12 15 14 -16 20 -20 4 -34 12 -34 21 0 8
5 15 11 15 6 0 6 4 -2 8 -9 6 -5 12 15 22 16 7 23 15 16 17 -8 3 -2 16 17 36
21 22 26 34 17 39 -17 11 -27 9 -62 -9z m-315 -209 c0 -8 -4 -13 -9 -10 -5 3
-12 -2 -15 -11 -5 -12 -9 -14 -18 -5 -9 9 -7 15 8 27 25 19 34 19 34 -1z m247
-130 c23 -3 44 -13 47 -20 7 -19 -10 -17 -79 12 -33 13 -49 22 -35 20 14 -3
44 -8 67 -12z"/>
<path d="M2270 3918 c0 -18 3 -63 6 -100 6 -63 8 -66 35 -70 26 -4 28 -2 34
42 6 44 -8 130 -21 130 -4 0 -4 -7 0 -15 3 -8 1 -15 -3 -15 -5 0 -14 14 -20
30 -13 40 -31 38 -31 -2z"/>
<path d="M2880 3919 c0 -16 -4 -28 -9 -24 -6 3 -7 -6 -2 -23 6 -19 4 -37 -5
-53 -7 -13 -13 -18 -14 -10 0 8 -2 12 -5 9 -9 -9 17 -58 27 -52 5 3 7 11 6 17
-1 7 4 23 11 37 9 14 10 25 4 27 -6 2 -8 25 -5 53 2 28 2 50 -2 50 -3 0 -6
-14 -6 -31z"/>
<path d="M4135 3930 c-17 -19 -17 -22 -2 -62 15 -37 15 -44 2 -57 -13 -13 -17
-12 -35 4 -11 10 -20 24 -20 32 0 7 -4 13 -10 13 -18 0 -11 -39 11 -61 24 -24
67 -22 83 3 7 12 7 29 -1 60 -8 29 -8 47 -1 55 16 19 48 -3 48 -32 0 -29 15
-33 24 -8 9 23 -25 67 -56 71 -14 2 -31 -5 -43 -18z"/>
<path d="M1515 3923 c-27 -8 -52 -17 -54 -19 -10 -10 24 -62 54 -83 43 -29
180 -70 262 -78 57 -5 65 -4 109 26 26 17 55 31 63 31 26 1 -26 39 -89 67 -30
13 -68 30 -85 38 -80 37 -174 44 -260 18z m229 -102 c18 -7 18 -8 2 -14 -10
-4 -27 0 -39 8 -20 14 -21 15 -2 14 11 0 29 -4 39 -8z m11 -61 c3 -6 -1 -7 -9
-4 -18 7 -21 14 -7 14 6 0 13 -4 16 -10z"/>
<path d="M2823 3925 c-10 -10 -9 -15 0 -24 10 -7 13 -4 15 15 2 28 1 28 -15 9z"/>
<path d="M3302 3928 c-18 -5 -32 -11 -32 -14 0 -3 9 -3 19 1 27 8 36 -12 10
-25 -11 -7 -18 -14 -16 -17 3 -2 14 0 25 6 17 9 21 7 26 -14 6 -23 14 -29 34
-22 4 1 7 18 7 38 0 43 -25 59 -73 47z"/>
<path d="M2737 3913 c-4 -3 -7 -11 -7 -17 0 -6 5 -5 12 2 6 6 9 14 7 17 -3 3
-9 2 -12 -2z"/>
<path d="M2910 3900 c-6 -12 -9 -24 -7 -27 3 -2 11 5 17 17 6 12 9 24 7 27 -3
2 -11 -5 -17 -17z"/>
<path d="M909 3881 c-21 -22 -29 -39 -29 -66 0 -45 45 -95 85 -95 40 0 81 26
95 59 40 96 -77 175 -151 102z m114 -23 c23 -27 22 -71 -2 -92 -48 -43 -136
12 -115 71 18 53 80 64 117 21z"/>
<path d="M2935 3870 c-31 -32 -25 -42 8 -12 11 9 17 11 13 5 -13 -23 10 -14
35 13 23 25 23 26 2 15 -14 -7 -23 -7 -25 0 -2 5 -16 -4 -33 -21z"/>
<path d="M2895 3809 c-4 -6 -5 -13 -2 -16 7 -7 27 6 27 18 0 12 -17 12 -25 -2z"/>
<path d="M3353 3772 c-14 -2 -23 -10 -23 -21 0 -10 -9 -26 -20 -36 -12 -10
-19 -24 -16 -31 3 -8 -3 -10 -17 -6 -22 5 -22 5 -3 -17 13 -14 26 -19 40 -15
14 3 17 2 8 -4 -16 -11 13 -32 111 -79 72 -35 148 -44 188 -22 19 10 19 11 -6
57 -34 61 -61 92 -108 121 -50 31 -127 57 -154 53z m38 -102 c19 -15 21 -19 7
-20 -15 0 -48 24 -48 36 0 10 20 3 41 -16z"/>
<path d="M1223 3705 c17 -112 27 -140 58 -165 l31 -26 -61 -18 c-68 -20 -71
-36 -7 -36 31 0 48 6 62 21 10 12 26 18 37 15 12 -3 21 3 27 19 5 13 23 34 40
47 41 30 37 64 -9 95 -37 25 -107 31 -113 11 -3 -7 -19 8 -38 32 l-33 45 6
-40z"/>
<path d="M3711 3705 c-6 -18 -20 -40 -31 -50 -22 -20 -15 -49 24 -100 25 -33
41 -73 38 -92 -5 -26 19 -12 39 22 12 19 25 35 31 35 5 0 6 5 3 10 -5 7 -11 8
-19 1 -7 -6 -17 -6 -26 0 -13 8 -13 10 0 19 8 5 20 10 26 10 6 0 17 11 24 25
8 14 22 25 34 25 35 1 55 22 49 55 -9 58 -14 62 -31 29 -30 -55 -77 -123 -84
-124 -5 0 -8 13 -8 28 0 16 -13 53 -28 84 l-29 56 -12 -33z m39 -100 c11 -13
8 -15 -13 -15 -19 0 -25 4 -21 15 4 8 10 15 14 15 4 0 13 -7 20 -15z"/>
<path d="M1360 3720 c0 -5 5 -10 11 -10 5 0 7 5 4 10 -3 6 -8 10 -11 10 -2 0
-4 -4 -4 -10z"/>
<path d="M746 3703 c-4 -8 8 -39 25 -70 l31 -54 -29 6 c-15 4 -43 11 -61 17
-25 7 -37 7 -45 -2 -9 -9 1 -24 44 -63 30 -29 59 -61 63 -71 6 -19 8 -19 24
-2 16 17 14 20 -33 63 -46 41 -48 44 -21 38 81 -18 86 -18 86 -2 0 9 -10 32
-21 52 -12 20 -20 38 -17 40 2 2 25 -10 51 -27 38 -25 50 -28 62 -18 15 13 10
35 -6 25 -5 -4 -21 2 -37 13 -84 59 -110 72 -116 55z"/>
<path d="M4370 3675 c-7 -8 -11 -35 -8 -67 3 -49 1 -53 -20 -56 -18 -3 -25 3
-33 27 -6 17 -15 31 -20 31 -17 0 -9 -39 15 -67 21 -24 27 -26 52 -17 27 9 29
13 29 69 0 38 4 60 13 63 19 6 44 -19 39 -40 -7 -23 7 -32 22 -14 10 11 9 21
-3 44 -22 42 -62 55 -86 27z"/>
<path d="M2780 3579 c0 -26 30 -37 42 -16 15 28 14 30 -14 33 -22 2 -28 -2
-28 -17z"/>
<path d="M3840 3560 c-9 -6 -10 -10 -3 -10 6 0 15 5 18 10 8 12 4 12 -15 0z"/>
<path d="M3125 3551 c3 -6 11 -9 16 -6 5 4 9 2 9 -4 0 -5 -5 -12 -10 -14 -6
-3 -5 -4 2 -3 20 4 15 30 -6 34 -11 3 -16 0 -11 -7z"/>
<path d="M3344 3513 c-4 -13 -10 -23 -14 -23 -4 0 -11 -8 -14 -17 -6 -15 -4
-15 13 1 17 16 23 17 36 6 13 -11 13 -15 3 -21 -10 -7 -10 -9 -1 -9 7 0 10 -7
6 -17 -5 -13 -2 -15 15 -11 26 7 40 -22 18 -38 -9 -6 -16 -16 -16 -23 0 -6 -5
-11 -11 -11 -5 0 -7 -5 -4 -11 4 -6 13 -8 21 -5 8 3 14 1 14 -4 0 -6 -5 -10
-11 -10 -5 0 -8 -4 -4 -9 3 -5 -5 -17 -17 -26 -21 -14 -24 -14 -36 2 -12 16
-13 12 -7 -24 7 -43 -1 -53 -23 -31 -9 9 -12 8 -12 -5 0 -10 12 -29 28 -43 15
-13 37 -34 50 -46 21 -21 22 -21 22 -1 0 10 18 43 39 72 30 40 38 59 36 84 -5
47 -26 96 -60 146 -16 23 -38 55 -48 70 l-17 26 -6 -22z"/>
<path d="M1126 3495 c4 -8 11 -15 16 -15 6 0 5 6 -2 15 -7 8 -14 15 -16 15 -2
0 -1 -7 2 -15z"/>
<path d="M4464 3481 c-87 -53 -54 -174 48 -174 34 0 47 6 70 32 15 17 28 40
28 52 0 33 -28 78 -60 94 -37 19 -48 19 -86 -4z m90 -32 c15 -12 26 -30 26
-45 0 -30 -41 -74 -70 -74 -25 0 -70 42 -70 65 0 26 20 55 43 65 33 13 42 12
71 -11z"/>
<path d="M585 3441 c-85 -35 -76 -167 13 -184 34 -7 87 15 101 41 14 26 14 77
1 103 -11 20 -60 49 -82 48 -7 0 -22 -4 -33 -8z m80 -46 c14 -13 25 -35 25
-49 0 -27 -41 -66 -70 -66 -31 0 -70 39 -70 71 0 63 70 90 115 44z"/>
<path d="M3715 3433 c-106 -27 -175 -108 -175 -206 0 -51 -24 -110 -59 -141
-40 -36 -21 -38 21 -2 45 39 69 44 89 20 11 -13 8 -19 -19 -41 -63 -48 -32
-63 136 -63 63 0 91 -3 87 -11 -5 -7 4 -8 27 -5 18 3 49 2 68 -2 34 -8 34 -9
13 -20 -20 -11 -51 -52 -39 -52 3 0 22 16 43 35 21 19 45 35 53 35 12 1 11 3
-3 11 -9 6 -15 14 -12 19 3 5 -4 11 -15 15 -11 3 -20 12 -20 20 0 7 -7 15 -15
19 -26 9 -17 24 23 37 20 6 49 20 64 30 14 11 30 19 35 19 6 0 26 18 46 40 19
22 33 40 30 40 -3 0 2 9 12 20 10 11 15 20 10 20 -4 0 -2 7 5 15 7 8 9 15 5
15 -3 0 3 12 14 26 27 34 27 48 0 41 -11 -3 -39 1 -61 9 -22 8 -53 14 -69 14
-15 0 -34 7 -43 15 -8 8 -26 15 -40 15 -14 0 -26 4 -26 9 0 15 -131 17 -185 4z"/>
<path d="M3280 3405 c0 -8 2 -15 4 -15 2 0 6 7 10 15 3 8 1 15 -4 15 -6 0 -10
-7 -10 -15z"/>
<path d="M3380 3398 c0 -4 4 -8 9 -8 6 0 12 4 15 8 3 5 -1 9 -9 9 -8 0 -15 -4
-15 -9z"/>
<path d="M3270 3371 c0 -6 4 -13 10 -16 6 -3 7 1 4 9 -7 18 -14 21 -14 7z"/>
<path d="M1600 3343 c0 -17 -6 -33 -12 -35 -7 -3 -3 -7 9 -10 20 -5 21 -3 16
31 -7 47 -13 53 -13 14z"/>
<path d="M2036 3341 c-5 -7 -3 -18 3 -24 14 -14 20 -6 11 17 -5 15 -9 16 -14
7z"/>
<path d="M2405 3329 c11 -7 26 -21 33 -31 17 -24 42 -23 42 1 0 12 -10 21 -27
25 -16 4 -37 9 -48 12 l-20 5 20 -12z"/>
<path d="M2125 3310 c-9 -28 -6 -30 59 -39 39 -5 71 -19 113 -47 l58 -39 -34
-5 c-31 -5 -33 -6 -17 -19 9 -8 15 -20 12 -27 -2 -6 4 -14 15 -17 13 -4 19 0
20 11 0 11 2 12 6 5 3 -10 9 -8 21 4 12 11 13 18 5 20 -7 3 -10 10 -7 18 3 7
-2 27 -11 44 -12 25 -22 31 -46 31 -31 0 -105 34 -124 57 -5 7 -22 15 -37 18
-21 5 -27 3 -33 -15z"/>
<path d="M2550 3305 c-10 -13 -9 -15 9 -15 12 0 21 6 21 15 0 8 -4 15 -9 15
-5 0 -14 -7 -21 -15z"/>
<path d="M3206 3285 c4 -8 8 -15 10 -15 2 0 4 7 4 15 0 8 -4 15 -10 15 -5 0
-7 -7 -4 -15z"/>
<path d="M1844 3237 c-6 -7 -19 -26 -29 -42 -19 -30 -19 -30 18 4 35 33 46 51
30 51 -5 -1 -13 -6 -19 -13z"/>
<path d="M2150 3246 c0 -2 7 -7 16 -10 8 -3 12 -2 9 4 -6 10 -25 14 -25 6z"/>
<path d="M4617 3225 c-37 -13 -74 -21 -82 -18 -10 3 -15 -1 -15 -11 0 -25 21
-28 69 -11 64 22 69 19 29 -22 -19 -21 -33 -44 -31 -50 3 -8 26 -13 61 -13
l57 -1 -57 -30 c-54 -27 -71 -50 -49 -64 6 -3 13 1 18 9 4 7 37 28 73 46 79
39 76 36 60 55 -9 10 -31 15 -73 15 l-61 0 46 48 c25 26 44 53 41 60 -6 15 -4
15 -86 -13z"/>
<path d="M2021 3201 c-27 -27 -20 -37 37 -46 40 -6 43 -5 42 23 -1 4 -10 6
-21 4 -12 -2 -22 4 -27 19 l-9 22 -22 -22z"/>
<path d="M437 3192 c-20 -22 -22 -73 -5 -90 19 -19 44 -14 76 13 17 14 37 25
45 25 24 0 27 -27 6 -53 -23 -30 -24 -37 -5 -37 40 0 62 91 27 110 -30 16 -47
12 -80 -16 -32 -27 -61 -26 -61 0 0 8 9 22 21 30 12 8 18 19 14 25 -9 16 -20
14 -38 -7z"/>
<path d="M2681 3160 c-6 -28 -18 -62 -27 -75 -17 -26 -12 -31 25 -25 13 1 13
-1 2 -14 -12 -14 -10 -16 8 -16 11 0 21 5 21 10 0 20 45 10 55 -12 6 -12 16
-23 23 -24 7 -1 8 0 3 2 -6 4 -6 14 1 30 9 19 8 27 -2 37 -10 9 -11 9 -6 0 4
-8 2 -13 -6 -13 -8 0 -14 9 -14 19 0 11 4 17 8 15 4 -3 8 -1 8 5 0 5 -6 14
-14 18 -7 4 -18 22 -23 38 -6 17 -15 29 -21 28 -6 -2 -9 4 -6 12 4 9 0 15 -9
15 -10 0 -19 -17 -26 -50z m11 -52 c-7 -7 -12 -8 -12 -2 0 6 3 14 7 17 3 4 9
5 12 2 2 -3 -1 -11 -7 -17z m30 -25 c-6 -3 -10 -9 -6 -14 3 -5 0 -9 -5 -9 -12
0 -14 11 -5 35 5 12 9 14 18 4 8 -8 8 -13 -2 -16z"/>
<path d="M2422 3180 c-7 -11 -10 -20 -6 -20 7 0 34 27 34 34 0 13 -16 5 -28
-14z"/>
<path d="M2490 3173 c1 -25 29 -74 30 -51 0 11 5 15 15 12 21 -9 19 19 -3 39
-24 22 -42 22 -42 0z"/>
<path d="M2428 3152 c-20 -28 -60 -52 -85 -52 -13 0 -23 -4 -23 -9 0 -17 19
-22 41 -10 18 9 21 9 16 -3 -3 -9 1 -15 9 -15 8 0 14 8 14 18 0 10 5 21 10 24
6 3 10 1 10 -5 0 -7 8 -9 19 -5 12 4 21 0 25 -12 6 -14 5 -16 -5 -6 -10 10
-18 8 -36 -9 -22 -21 -31 -48 -15 -48 4 0 13 5 19 11 8 8 17 8 31 0 11 -6 24
-11 27 -11 8 0 2 56 -10 85 l-8 20 17 -20 c15 -19 15 -18 5 13 -14 43 -43 59
-61 34z"/>
<path d="M757 3152 c-21 -3 -26 -7 -18 -16 7 -8 3 -26 -10 -56 -27 -59 -27
-156 0 -208 21 -41 48 -69 57 -59 3 3 14 -3 24 -13 28 -28 192 -55 236 -39 10
3 26 3 34 -1 11 -6 15 -2 15 15 0 19 -3 21 -17 14 -14 -7 -18 -6 -18 6 0 18
-11 19 -29 3 -11 -11 -14 -10 -18 0 -4 10 -11 8 -28 -8 -14 -13 -25 -17 -29
-11 -4 5 -13 8 -20 5 -7 -3 -16 2 -19 10 -4 9 -17 16 -29 16 -29 1 -60 42 -57
78 2 33 -10 72 -23 72 -5 0 -6 10 -3 23 4 15 3 18 -3 8 -7 -9 -12 -10 -16 -2
-4 6 -4 11 1 11 4 0 1 5 -7 10 -13 8 -12 11 4 23 12 9 17 20 13 31 -7 18 21
58 35 50 4 -3 8 2 8 10 0 18 13 20 39 7 9 -5 23 -6 30 -1 28 17 -71 31 -152
22z m53 -246 c0 -8 -4 -18 -10 -21 -5 -3 -10 3 -10 14 0 12 5 21 10 21 6 0 10
-6 10 -14z"/>
<path d="M2940 3150 c0 -5 7 -10 16 -10 8 0 12 5 9 10 -3 6 -10 10 -16 10 -5
0 -9 -4 -9 -10z"/>
<path d="M2581 3123 c20 -27 49 -55 49 -48 0 11 -23 50 -34 57 -20 14 -29 8
-15 -9z"/>
<path d="M2912 3115 c55 -29 98 -33 98 -9 0 13 -3 14 -13 5 -10 -8 -23 -6 -52
9 -59 30 -90 25 -33 -5z"/>
<path d="M934 3119 c-3 -5 1 -9 9 -9 12 0 14 -9 10 -40 -7 -51 2 -76 20 -58 8
7 12 20 9 30 -2 10 -2 25 2 33 5 14 11 13 46 -5 31 -16 38 -17 34 -5 -4 8 -12
15 -18 15 -7 0 -34 11 -59 24 -26 13 -50 20 -53 15z"/>
<path d="M2002 3085 c-17 -25 -36 -45 -42 -45 -20 0 -9 -21 16 -31 35 -13 63
10 57 46 -4 20 -2 23 16 18 12 -3 21 -3 21 0 0 12 -23 57 -30 57 -3 0 -20 -20
-38 -45z"/>
<path d="M2121 3114 c0 -11 3 -14 6 -6 3 7 2 16 -1 19 -3 4 -6 -2 -5 -13z"/>
<path d="M2795 3121 c-6 -10 25 -31 46 -31 8 0 5 7 -6 20 -20 22 -31 25 -40
11z"/>
<path d="M851 3094 c0 -11 3 -14 6 -6 3 7 2 16 -1 19 -3 4 -6 -2 -5 -13z"/>
<path d="M1796 3084 c-10 -26 -7 -164 4 -185 13 -24 35 -26 25 -1 -4 9 -7 59
-6 110 1 85 -8 115 -23 76z"/>
<path d="M990 3063 c0 -4 5 -15 10 -23 8 -13 10 -13 10 2 0 9 -4 20 -10 23 -5
3 -10 3 -10 -2z"/>
<path d="M2140 3060 c0 -5 4 -10 9 -10 6 0 13 5 16 10 3 6 -1 10 -9 10 -9 0
-16 -4 -16 -10z"/>
<path d="M2166 3030 c-16 -39 -15 -43 7 -35 18 8 28 38 16 56 -6 10 -12 4 -23
-21z"/>
<path d="M2300 3044 c0 -8 5 -12 10 -9 6 4 8 11 5 16 -9 14 -15 11 -15 -7z"/>
<path d="M2558 3053 c-49 -8 -40 -28 11 -25 25 2 53 5 61 8 13 4 13 6 0 14
-15 10 -24 10 -72 3z"/>
<path d="M2810 3028 c0 -30 4 -38 18 -37 10 0 12 3 4 6 -19 8 -4 22 18 16 18
-5 25 -15 21 -36 -1 -5 3 -6 9 -2 5 3 10 2 10 -3 0 -5 25 -26 56 -47 30 -21
73 -58 95 -83 21 -25 39 -41 39 -37 0 5 -9 19 -21 31 -20 22 -19 44 2 44 6 0
7 -4 4 -10 -3 -5 -2 -10 4 -10 6 0 18 15 27 33 13 24 14 29 3 20 -15 -12 -18
-3 -22 54 0 8 -9 10 -22 7 -16 -4 -22 -1 -22 11 0 11 6 15 18 12 10 -3 24 2
30 10 10 11 9 17 -4 30 -13 14 -20 14 -46 4 -29 -13 -30 -14 -27 -78 2 -35 0
-61 -3 -56 -3 4 -13 9 -21 11 -22 5 -41 23 -51 49 -5 13 -15 23 -23 23 -9 0
-12 7 -9 20 5 17 0 20 -30 20 -24 0 -40 6 -46 18 -8 14 -10 10 -11 -20z m233
-9 c-8 -8 -13 -7 -18 2 -5 8 -4 10 3 5 7 -4 12 -2 12 5 0 7 3 9 7 6 4 -4 2
-12 -4 -18z m16 -107 c1 -7 -3 -10 -9 -7 -5 3 -10 18 -9 33 0 24 1 25 9 7 5
-11 9 -26 9 -33z m-25 -8 c3 -8 2 -12 -4 -9 -6 3 -10 10 -10 16 0 14 7 11 14
-7z"/>
<path d="M830 3033 c0 -11 20 -40 20 -29 0 5 7 3 15 -4 20 -17 19 -5 -2 20
-18 20 -33 26 -33 13z"/>
<path d="M2235 3028 c8 -20 30 -24 41 -6 5 7 2 9 -8 5 -9 -3 -21 0 -27 6 -9 9
-11 8 -6 -5z"/>
<path d="M2920 3020 c0 -5 4 -10 9 -10 6 0 13 5 16 10 3 6 -1 10 -9 10 -9 0
-16 -4 -16 -10z"/>
<path d="M2969 3013 c-13 -16 -12 -17 4 -4 16 13 21 21 13 21 -2 0 -10 -8 -17
-17z"/>
<path d="M4260 2820 l0 -213 23 21 c13 12 36 26 53 32 l30 11 -7 62 c-4 34
-19 94 -33 132 -15 39 -34 90 -42 115 -9 25 -18 47 -20 49 -2 2 -4 -92 -4
-209z"/>
<path d="M4497 2981 c-4 -18 -6 -48 -6 -65 1 -21 4 -14 10 23 10 60 6 96 -4
42z"/>
<path d="M2980 2991 c0 -6 4 -13 10 -16 6 -3 7 1 4 9 -7 18 -14 21 -14 7z"/>
<path d="M1723 2948 c2 -25 14 -59 25 -76 12 -16 19 -31 17 -34 -2 -2 5 -4 16
-5 16 -2 18 1 9 12 -6 7 -25 44 -41 82 l-30 68 4 -47z"/>
<path d="M3162 2970 c0 -14 2 -19 5 -12 2 6 2 18 0 25 -3 6 -5 1 -5 -13z"/>
<path d="M4042 2973 c-18 -10 -52 -43 -77 -73 -44 -53 -57 -79 -33 -64 7 4 8
3 4 -5 -4 -6 -11 -9 -16 -6 -5 3 -21 -18 -35 -47 -14 -29 -33 -58 -41 -65 -11
-8 -13 -21 -8 -47 l6 -36 70 38 c73 41 180 137 205 185 8 16 17 53 20 83 l6
54 -34 0 c-19 0 -49 -8 -67 -17z m-52 -144 c-7 -11 -14 -18 -17 -15 -3 3 0 12
7 21 18 21 23 19 10 -6z"/>
<path d="M3087 2974 c-9 -9 4 -34 18 -34 8 0 11 8 8 20 -5 20 -15 25 -26 14z"/>
<path d="M4692 2940 c-57 -35 -66 -104 -17 -150 50 -47 147 -16 153 50 5 51
-6 79 -41 100 -40 25 -54 25 -95 0z m101 -42 c22 -26 22 -50 -2 -79 -24 -30
-87 -32 -107 -4 -53 73 49 151 109 83z"/>
<path d="M851 2934 c0 -11 3 -14 6 -6 3 7 2 16 -1 19 -3 4 -6 -2 -5 -13z"/>
<path d="M2257 2930 c3 -12 6 -19 7 -18 1 2 8 11 15 21 12 15 11 17 -7 17 -15
0 -19 -5 -15 -20z"/>
<path d="M3181 2927 c0 -12 3 -16 6 -9 4 10 8 9 18 -5 13 -17 14 -17 12 4 -2
30 -37 39 -36 10z"/>
<path d="M1983 2933 c-15 -6 -17 -42 -3 -63 5 -8 10 -13 10 -10 1 3 3 22 6 43
3 20 4 37 2 36 -2 0 -9 -3 -15 -6z"/>
<path d="M2153 2933 c9 -2 17 -13 17 -24 0 -11 5 -17 10 -14 6 3 10 15 10 26
0 14 -7 19 -27 18 -17 -1 -21 -3 -10 -6z"/>
<path d="M3161 2913 c-1 -23 4 -33 14 -33 8 0 15 -6 15 -14 0 -8 4 -17 9 -20
5 -3 8 5 7 19 0 14 -7 27 -14 30 -7 2 -17 15 -22 27 -8 21 -9 20 -9 -9z"/>
<path d="M2218 2899 c-10 -10 -15 -19 -10 -19 10 1 42 26 42 34 0 11 -15 5
-32 -15z"/>
<path d="M1832 2875 c-29 -37 -28 -42 9 -37 22 3 37 -2 56 -19 l25 -24 -23 36
c-13 20 -29 45 -35 54 -9 17 -12 16 -32 -10z"/>
<path d="M2083 2893 c-13 -2 -23 -9 -23 -14 0 -16 31 -23 40 -9 9 14 45 10 42
-5 -1 -5 -10 -10 -20 -11 -67 -4 -65 -3 -52 -19 7 -9 22 -13 34 -10 12 3 15 2
8 -1 -6 -3 -10 -9 -7 -13 2 -5 -2 -17 -10 -27 -13 -18 -14 -17 -25 13 -8 21
-18 31 -30 30 -16 -1 -15 -4 7 -34 14 -18 30 -33 37 -33 6 0 22 -3 35 -7 16
-4 22 -2 18 4 -4 6 7 28 24 49 16 21 27 44 24 52 -3 7 -5 16 -5 18 0 3 -4 2
-10 -1 -5 -3 -10 1 -10 9 0 16 -26 19 -77 9z m92 -53 c-3 -5 -16 -10 -28 -9
-21 0 -21 1 -2 9 28 12 37 12 30 0z"/>
<path d="M3112 2875 c-6 -14 -7 -25 -2 -25 9 0 25 39 18 46 -3 2 -10 -7 -16
-21z"/>
<path d="M3757 2873 c-9 -2 -15 -8 -13 -12 7 -10 66 -1 66 10 0 9 -22 10 -53
2z"/>
<path d="M4476 2839 c-4 -23 -5 -44 -2 -46 2 -2 7 14 11 37 4 23 5 43 2 46 -2
3 -7 -14 -11 -37z"/>
<path d="M314 2844 c-24 -36 -9 -78 29 -82 20 -3 35 5 56 27 47 50 85 33 55
-24 -19 -36 -8 -47 17 -16 21 26 24 53 9 82 -17 30 -55 23 -95 -16 -19 -20
-40 -33 -45 -30 -16 10 -12 55 5 61 19 8 19 24 0 24 -8 0 -22 -12 -31 -26z"/>
<path d="M1955 2860 c3 -5 8 -10 11 -10 2 0 4 5 4 10 0 6 -5 10 -11 10 -5 0
-7 -4 -4 -10z"/>
<path d="M3293 2864 c-15 -6 -16 -23 -4 -42 6 -11 15 -10 44 5 20 10 35 23 33
28 -3 11 -54 17 -73 9z"/>
<path d="M3130 2841 c0 -12 28 -41 41 -41 5 0 18 -9 30 -21 25 -25 36 -19 18
9 -15 24 -89 68 -89 53z"/>
<path d="M1111 2824 c0 -11 3 -14 6 -6 3 7 2 16 -1 19 -3 4 -6 -2 -5 -13z"/>
<path d="M3355 2821 c4 -7 -3 -11 -16 -11 -31 0 -18 -10 20 -15 36 -4 40 5 10
23 -12 8 -18 9 -14 3z"/>
<path d="M2004 2767 c-8 -38 -13 -43 -44 -48 -19 -4 -29 -7 -21 -8 8 -1 11 -8
8 -21 -3 -11 -1 -20 5 -20 5 0 6 -4 3 -10 -3 -5 0 -10 9 -10 8 0 17 -6 19 -12
3 -7 6 -1 6 13 1 15 7 39 15 54 12 23 15 24 19 8 3 -10 5 5 6 34 1 65 -13 77
-25 20z"/>
<path d="M3120 2798 c0 -13 24 -63 35 -70 6 -5 6 -8 -2 -8 -7 0 -20 14 -28 31
-9 17 -18 29 -20 27 -2 -2 16 -41 39 -88 47 -94 72 -181 81 -282 5 -46 11 -68
20 -68 7 0 19 -8 26 -17 12 -15 12 -16 -3 -10 -25 9 -22 0 3 -14 17 -9 20 -8
14 2 -6 9 -3 11 9 6 10 -4 15 -3 11 3 -3 6 0 10 7 10 8 0 6 5 -4 11 -10 5 -18
15 -18 21 0 7 5 6 15 -2 9 -8 15 -9 15 -2 0 6 -10 18 -22 26 -12 9 -18 16 -12
16 6 0 19 -9 29 -20 10 -11 29 -19 44 -19 l26 2 -27 4 c-18 3 -25 9 -21 19 3
8 0 14 -6 14 -7 0 -9 9 -5 25 7 29 -10 34 -25 8 -6 -11 -11 -13 -11 -5 0 9 -7
8 -25 -4 -30 -20 -32 -6 -4 30 12 16 16 26 8 26 -6 0 -18 -8 -25 -17 -12 -16
-13 -16 -14 9 0 14 -3 33 -6 42 -5 12 2 11 36 -5 54 -26 65 -17 11 10 -30 16
-45 33 -61 67 -27 62 -26 73 11 104 24 19 30 31 25 46 -3 11 -14 21 -24 20
-58 0 -72 5 -86 32 -8 15 -15 24 -16 20z m110 -78 c13 -8 10 -14 -15 -35 -16
-13 -33 -24 -37 -25 -13 0 -9 18 5 23 9 4 8 8 -3 16 -13 10 -13 12 0 21 19 12
31 12 50 0z"/>
<path d="M1955 2780 c3 -5 8 -10 11 -10 2 0 4 5 4 10 0 6 -5 10 -11 10 -5 0
-7 -4 -4 -10z"/>
<path d="M3280 2780 c0 -3 16 -6 35 -7 19 -1 32 3 29 8 -6 10 -64 9 -64 -1z"/>
<path d="M3250 2766 c0 -9 5 -16 10 -16 6 0 10 4 10 9 0 6 -4 13 -10 16 -5 3
-10 -1 -10 -9z"/>
<path d="M1911 2753 c-1 -12 -9 -24 -21 -28 -26 -8 -26 -25 1 -25 11 0 18 -4
14 -10 -3 -5 -12 -7 -20 -3 -11 4 -13 1 -9 -10 3 -9 12 -13 20 -10 14 5 16 10
18 36 1 6 9 18 19 25 21 16 23 36 3 29 -8 -3 -17 -1 -20 6 -2 7 -5 2 -5 -10z"/>
<path d="M3300 2747 c0 -16 9 -28 25 -35 34 -16 40 1 12 32 -30 32 -37 33 -37
3z"/>
<path d="M1820 2740 c0 -11 5 -20 10 -20 6 0 10 9 10 20 0 11 -4 20 -10 20 -5
0 -10 -9 -10 -20z"/>
<path d="M2076 2725 c8 -20 -12 -75 -40 -110 -19 -24 -26 -27 -38 -18 -8 7
-25 9 -38 6 -22 -6 -23 -7 -4 -14 14 -6 9 -8 -18 -8 -31 -1 -38 -5 -38 -22 0
-11 -4 -17 -10 -14 -13 8 -13 -5 0 -25 7 -11 10 -11 10 -2 0 7 5 10 10 7 6 -4
8 -10 5 -15 -3 -5 3 -13 12 -19 10 -6 13 -11 6 -11 -6 0 -15 5 -18 10 -4 6
-11 7 -17 4 -7 -4 -2 -14 13 -26 15 -13 18 -18 7 -14 -24 7 -28 -14 -6 -36 10
-10 15 -24 11 -34 -5 -14 -2 -16 14 -12 18 5 21 1 19 -23 -3 -42 18 -30 22 12
5 50 22 61 22 14 0 -51 6 -42 14 21 5 41 3 51 -8 51 -9 0 -13 -4 -11 -8 3 -3
-2 -12 -10 -19 -8 -7 -15 -9 -16 -4 0 5 -4 0 -8 -11 -7 -18 -8 -17 -13 6 -7
37 8 69 32 69 12 0 20 7 20 17 0 15 2 14 15 -3 13 -18 14 -17 15 19 0 20 -4
37 -9 37 -5 0 -12 7 -15 16 -5 12 -2 15 13 11 18 -4 39 31 88 151 3 7 -3 12
-16 12 -14 0 -19 -5 -15 -15z m-141 -165 c-3 -5 -1 -10 5 -10 6 0 8 -5 4 -12
-5 -8 -1 -9 12 -4 15 6 17 5 6 -5 -10 -11 -15 -10 -28 3 -14 14 -13 38 2 38 3
0 2 -4 -1 -10z"/>
<path d="M4142 2695 c0 -16 2 -22 5 -12 2 9 2 23 0 30 -3 6 -5 -1 -5 -18z"/>
<path d="M1540 2696 c0 -2 8 -10 18 -17 15 -13 16 -12 3 4 -13 16 -21 21 -21
13z"/>
<path d="M3353 2671 c-21 -27 -21 -41 0 -41 6 0 8 3 4 6 -3 4 0 13 8 21 8 8
15 21 15 29 0 18 -1 18 -27 -15z"/>
<path d="M865 2680 c-3 -6 1 -7 9 -4 9 3 16 1 16 -5 0 -16 17 -13 24 4 4 11
-1 15 -19 15 -13 0 -27 -4 -30 -10z"/>
<path d="M930 2686 c0 -2 7 -7 16 -10 8 -3 12 -2 9 4 -6 10 -25 14 -25 6z"/>
<path d="M970 2669 c0 -7 8 -18 17 -25 16 -11 16 -13 -10 -25 -15 -7 -27 -16
-27 -20 0 -5 -18 -18 -40 -29 -23 -12 -38 -25 -35 -30 3 -5 -11 -16 -30 -26
-28 -13 -34 -21 -30 -38 2 -11 2 -15 -1 -8 -9 18 -28 15 -42 -8 -7 -12 -17
-18 -22 -15 -6 3 -10 2 -10 -3 0 -5 -9 -12 -21 -15 -15 -4 -19 -2 -15 9 8 21
-31 -1 -47 -26 -6 -11 -17 -20 -23 -20 -15 0 -23 -31 -17 -63 4 -20 9 -24 27
-20 11 3 66 6 121 7 74 1 109 6 134 19 19 9 37 14 40 11 3 -4 0 -9 -7 -11 -6
-3 -10 -9 -6 -14 3 -5 1 -9 -4 -9 -18 0 -35 -57 -23 -78 11 -20 65 -45 75 -35
3 4 6 0 6 -7 0 -7 3 -10 7 -7 7 8 42 -59 43 -80 0 -7 -6 -13 -14 -13 -8 0 -51
-19 -96 -42 -78 -40 -146 -103 -178 -163 -13 -25 -51 -125 -48 -125 2 0 17 22
35 50 43 67 91 104 181 141 78 33 271 92 278 85 2 -3 -2 -14 -8 -27 -11 -19
-10 -25 6 -36 20 -15 106 -13 153 2 22 7 22 6 11 -14 -6 -13 -9 -29 -6 -37 7
-19 -23 -18 -45 2 -18 16 -113 33 -185 34 l-41 0 20 -42 c27 -55 33 -60 86
-82 44 -17 92 -15 119 7 17 14 24 5 29 -40 4 -36 1 -40 -41 -70 -55 -39 -66
-72 -41 -120 10 -18 21 -33 26 -33 4 0 21 -13 38 -29 l31 -29 16 30 c10 20 14
42 9 64 -3 19 -4 34 -1 34 9 0 69 -106 77 -135 4 -16 11 -40 14 -52 6 -17 3
-23 -9 -23 -13 0 -6 -14 24 -55 l41 -55 -26 -10 c-14 -5 -25 -12 -25 -14 0 -7
75 3 140 19 30 8 103 21 161 31 l106 17 2 51 c0 28 5 65 10 83 5 17 8 96 6
175 -3 126 -3 133 5 64 12 -103 16 -126 28 -156 7 -19 5 -31 -9 -51 -11 -15
-21 -54 -25 -94 l-7 -68 79 7 c49 5 88 14 104 25 43 30 54 35 46 23 -10 -16
26 -15 46 1 9 6 18 19 20 27 3 9 17 15 40 15 20 0 34 -3 31 -7 -2 -5 6 -8 18
-8 16 0 20 5 16 19 -2 10 -1 25 3 31 12 20 -20 78 -47 84 -12 4 -23 13 -23 21
0 18 -12 19 -29 3 -11 -11 -12 -9 -7 8 5 18 -2 24 -56 45 -34 13 -70 35 -80
49 -25 35 -33 83 -16 101 19 21 21 48 3 55 -15 6 -49 -25 -39 -36 3 -2 9 2 14
10 5 8 13 11 17 6 4 -4 -1 -14 -11 -22 -11 -8 -14 -14 -7 -14 7 0 9 -5 6 -11
-5 -7 -13 -4 -26 7 -18 17 -17 61 2 74 4 3 -1 17 -11 30 -17 21 -20 22 -20 7
0 -26 -22 -16 -39 17 -9 21 -10 34 -3 51 10 22 2 92 -11 88 -4 -1 -22 4 -41
12 -20 8 -56 15 -81 15 -75 0 -163 29 -191 64 -14 17 -32 39 -40 49 -22 27
-64 15 -219 -59 -28 -13 -85 -28 -127 -34 -111 -14 -128 -19 -128 -41 0 -10
-4 -19 -9 -19 -28 0 -28 105 0 180 11 30 23 65 26 78 3 12 8 22 12 22 3 0 6
12 7 28 1 15 13 53 27 85 15 32 27 62 27 67 0 18 -20 21 -36 5 -13 -12 -19
-13 -30 -4 -8 7 -13 17 -11 23 2 6 -2 29 -10 50 -9 27 -10 43 -3 50 20 20 9
26 -45 26 -34 0 -55 -4 -55 -11z m160 -169 c0 -15 -24 -64 -35 -72 -5 -4 -10
-11 -11 -15 -1 -14 -33 -77 -48 -96 -20 -26 -47 -12 -40 22 13 51 27 67 57 62
4 -1 10 7 14 16 4 10 12 21 19 26 7 4 15 21 19 37 6 27 25 43 25 20z m-110
-225 c0 -8 -4 -15 -10 -15 -5 0 -7 7 -4 15 4 8 8 15 10 15 2 0 4 -7 4 -15z
m424 -169 c-3 -8 -15 -16 -27 -19 -21 -6 -21 -6 2 14 28 23 32 24 25 5z m110
-11 c-4 -9 -16 -21 -27 -27 -21 -11 -21 -11 -2 -19 15 -6 10 -8 -19 -8 l-39
-1 44 34 c52 41 50 40 43 21z m-59 -15 c-3 -5 -12 -10 -18 -10 -7 0 -6 4 3 10
19 12 23 12 15 0z m280 -110 c21 -22 36 -40 33 -40 -4 0 -29 12 -58 26 -28 14
-70 32 -93 39 l-42 13 60 1 c58 1 63 -1 100 -39z m-21 -118 c18 -37 18 -37 -1
-19 -24 21 -43 22 -68 3 -14 -10 -26 -11 -43 -5 -13 5 -28 7 -33 4 -5 -4 -6 1
-3 9 4 9 26 17 60 22 30 3 54 10 54 15 0 20 16 6 34 -29z m137 -9 c13 -16 12
-17 -3 -4 -10 7 -18 15 -18 17 0 8 8 3 21 -13z m-424 -75 c-3 -7 -5 -2 -5 12
0 14 2 19 5 13 2 -7 2 -19 0 -25z m163 7 c-20 -24 -3 -31 21 -9 12 10 20 15
18 9 -3 -5 -10 -21 -16 -35 -6 -14 -14 -34 -18 -45 -5 -16 -8 -17 -15 -5 -9
13 -10 13 -10 0 0 -13 -1 -13 -10 0 -16 24 -11 52 12 77 24 26 38 32 18 8z
m341 -164 c-12 -41 -61 -142 -61 -126 0 6 9 34 20 63 11 29 20 76 20 105 l1
52 16 -29 c12 -23 13 -36 4 -65z m-646 42 c14 -31 13 -42 0 -37 -10 4 -12 -1
-8 -15 4 -15 1 -21 -11 -21 -17 0 -19 11 -10 59 7 35 18 40 29 14z m375 -75
c20 -22 29 -64 10 -53 -5 3 -10 2 -10 -3 0 -12 -39 -52 -50 -52 -6 0 -1 9 10
20 24 24 27 55 4 46 -9 -3 -39 -9 -68 -12 -58 -7 -86 9 -86 49 1 18 3 16 15
-10 11 -25 20 -33 40 -33 40 0 96 28 102 50 7 25 8 25 33 -2z m227 -142 c-4
-9 -11 -16 -17 -16 -11 0 -14 33 -3 44 11 10 26 -11 20 -28z"/>
<path d="M1601 1724 c0 -11 3 -14 6 -6 3 7 2 16 -1 19 -3 4 -6 -2 -5 -13z"/>
<path d="M2385 2671 c-25 -6 -17 -9 49 -19 81 -13 102 -11 69 6 -27 14 -84 20
-118 13z"/>
<path d="M4802 2668 c-5 -7 -17 -30 -26 -51 -21 -50 -51 -48 -51 3 0 19 -4 36
-10 38 -6 1 -10 -19 -10 -45 0 -43 3 -48 27 -57 33 -12 62 10 73 52 10 40 25
55 41 41 17 -14 18 -41 3 -56 -8 -8 -7 -13 2 -18 32 -20 47 57 17 92 -13 17
-53 17 -66 1z"/>
<path d="M4487 2663 c-9 -14 -5 -63 4 -57 14 8 49 -6 46 -19 -3 -14 32 -22 45
-9 16 16 -18 69 -53 81 -38 13 -37 13 -42 4z"/>
<path d="M2580 2648 c-19 -6 -30 -12 -25 -14 26 -8 358 -55 373 -52 15 3 14 6
-6 26 -18 18 -33 22 -84 22 -35 0 -70 -5 -78 -10 -10 -6 -21 -4 -35 9 -25 23
-99 33 -145 19z"/>
<path d="M3284 2625 c8 -48 37 -97 44 -75 3 8 14 27 24 43 11 15 15 27 10 27
-6 0 -12 -6 -15 -12 -2 -8 -16 0 -36 22 l-33 34 6 -39z m27 -22 c13 -16 12
-17 -3 -4 -10 7 -18 15 -18 17 0 8 8 3 21 -13z"/>
<path d="M385 2635 c-27 -7 -67 -16 -87 -20 -59 -9 -50 -34 30 -80 37 -22 69
-43 70 -47 2 -4 10 -8 18 -8 21 0 17 28 -7 40 -16 9 -19 19 -17 48 2 29 8 37
28 42 14 3 26 14 28 23 4 19 5 19 -63 2z m-15 -60 c0 -30 0 -30 -46 -8 -35 17
-35 18 -13 24 47 14 59 10 59 -16z"/>
<path d="M826 2635 c-3 -8 -1 -15 4 -15 6 0 10 7 10 15 0 8 -2 15 -4 15 -2 0
-6 -7 -10 -15z"/>
<path d="M870 2640 c-9 -6 -10 -10 -3 -10 6 0 15 5 18 10 8 12 4 12 -15 0z"/>
<path d="M1597 2631 c3 -11 9 -21 14 -21 16 0 64 -53 81 -90 l17 -35 0 31 c1
30 -7 39 -91 113 -26 23 -27 23 -21 2z"/>
<path d="M945 2630 c4 -6 11 -8 16 -5 14 9 11 15 -7 15 -8 0 -12 -5 -9 -10z"/>
<path d="M1915 2620 c-3 -5 -1 -10 4 -10 6 0 11 5 11 10 0 6 -2 10 -4 10 -3 0
-8 -4 -11 -10z"/>
<path d="M774 2598 c-2 -4 0 -9 6 -13 6 -4 8 -11 5 -16 -10 -15 12 -10 25 6 7
8 16 13 20 10 4 -3 10 1 13 8 5 13 -61 18 -69 5z"/>
<path d="M4237 2573 c-13 -44 -17 -98 -8 -82 12 19 26 99 18 99 -3 0 -8 -8
-10 -17z"/>
<path d="M715 2560 c-3 -5 -1 -10 4 -10 6 0 11 5 11 10 0 6 -2 10 -4 10 -3 0
-8 -4 -11 -10z"/>
<path d="M747 2552 c1 -8 3 -16 3 -18 0 -3 5 -2 10 1 6 3 10 11 10 16 0 6 -4
8 -9 5 -5 -4 -11 -3 -14 1 -2 5 -2 2 0 -5z"/>
<path d="M4111 2555 c0 -11 6 -29 14 -39 20 -26 20 0 0 34 -13 22 -14 23 -14
5z"/>
<path d="M4294 2560 c-8 -8 -9 -23 -2 -50 7 -27 7 -49 -1 -71 -14 -40 -10 -44
17 -19 26 25 71 35 109 25 l28 -7 -30 -24 c-21 -17 -24 -22 -10 -18 11 4 27
13 36 21 12 10 29 12 59 7 41 -7 42 -6 31 14 -8 14 -8 23 -1 27 8 5 8 11 0 20
-7 8 -7 21 -1 38 9 22 7 25 -15 30 -13 2 -24 1 -24 -3 0 -8 -38 -25 -89 -40
-27 -7 -32 -7 -23 2 19 19 14 35 -10 41 -13 3 -32 8 -43 12 -11 3 -25 1 -31
-5z"/>
<path d="M3435 2520 c-21 -23 -4 -27 19 -4 18 17 20 24 8 24 -5 0 -17 -9 -27
-20z"/>
<path d="M4162 2475 c0 -51 1 -55 8 -27 4 19 4 46 0 60 -6 21 -8 13 -8 -33z"/>
<path d="M3706 2479 c-9 -47 -8 -49 17 -40 12 4 42 7 67 5 l45 -2 -38 34 c-48
44 -82 45 -91 3z"/>
<path d="M4267 2482 c-10 -10 -17 -24 -17 -30 0 -6 -5 -14 -12 -18 -8 -5 -9 0
-6 14 4 12 2 22 -2 22 -5 0 -12 -16 -16 -35 -3 -20 -12 -35 -20 -35 -8 0 -14
-9 -13 -22 1 -17 2 -19 6 -5 2 9 11 17 19 17 8 0 14 7 14 15 0 8 5 14 12 13 6
-2 22 16 35 40 26 45 26 53 0 24z"/>
<path d="M588 2478 c-6 -17 12 -88 23 -88 4 0 11 5 14 10 3 6 2 10 -3 10 -11
0 -27 47 -23 68 2 16 -6 16 -11 0z"/>
<path d="M1222 2430 c-17 -33 -27 -60 -22 -60 5 0 12 10 16 22 10 32 45 57 79
58 l30 1 -24 19 c-13 11 -29 20 -36 20 -7 0 -27 -27 -43 -60z"/>
<path d="M2260 2476 c0 -8 12 -27 28 -43 22 -24 39 -32 86 -37 32 -4 62 -4 67
1 5 5 5 22 1 38 -8 27 -14 31 -58 37 -27 4 -66 9 -86 12 -29 5 -38 3 -38 -8z"/>
<path d="M3410 2480 c-10 -6 -11 -12 -5 -18 6 -6 17 -3 29 9 14 14 16 19 5 19
-8 0 -21 -5 -29 -10z"/>
<path d="M4131 2475 c0 -11 4 -29 9 -40 l9 -20 0 20 c0 11 -4 29 -9 40 l-9 20
0 -20z"/>
<path d="M4030 2457 c-14 -7 -35 -21 -47 -32 l-23 -19 32 -33 c18 -18 27 -33
20 -33 -6 0 -9 -7 -6 -15 5 -11 -1 -15 -26 -15 -17 0 -40 5 -51 11 -11 5 -30
9 -42 7 -17 -2 -8 -10 39 -34 54 -27 60 -33 53 -52 -5 -12 -13 -22 -19 -22
-15 0 -32 -50 -24 -69 11 -24 11 -35 0 -49 -6 -9 -11 -10 -16 -2 -17 27 -79
-43 -66 -75 3 -8 -2 -19 -10 -25 -16 -14 -19 -37 -4 -42 5 -1 -2 -18 -17 -37
-27 -34 -40 -81 -23 -81 5 0 14 9 20 20 16 29 31 25 24 -7 l-6 -28 21 30 c11
17 21 36 21 43 0 7 12 35 26 63 37 74 23 71 -19 -3 -20 -35 -36 -56 -37 -48 0
22 68 120 82 117 7 -1 14 8 16 21 2 12 10 22 18 22 9 0 29 13 45 30 51 51 69
60 96 49 14 -5 29 -7 34 -3 12 7 11 4 -3 -37 -6 -19 -22 -47 -35 -63 -26 -31
-24 -47 4 -25 9 8 14 9 10 3 -3 -6 4 -21 16 -32 46 -44 57 -59 57 -78 1 -18 1
-18 11 -1 5 9 17 17 24 17 8 0 15 5 15 10 0 6 11 3 24 -5 21 -14 24 -14 29 -1
4 9 -5 28 -18 45 -29 34 -31 43 -8 34 52 -20 106 -106 79 -125 -7 -4 -2 -16
11 -30 34 -38 53 -84 54 -135 l1 -48 13 30 c19 40 18 97 0 141 -14 35 -14 37
10 66 14 17 33 44 41 61 15 27 15 29 0 24 -14 -6 -20 8 -15 39 0 3 -7 16 -16
30 -9 13 -13 29 -10 35 7 11 -21 60 -42 72 -7 4 -13 14 -13 21 0 12 -27 30
-60 39 -10 2 -6 9 15 20 26 13 28 16 12 23 -15 5 -16 9 -5 15 10 7 9 9 -4 9
-33 0 -18 19 22 30 22 6 40 15 40 21 0 6 -9 8 -20 4 -12 -4 -28 -1 -36 6 -13
11 -12 15 12 34 15 12 25 26 23 33 -2 6 -24 -7 -48 -29 -32 -27 -47 -35 -52
-27 -9 14 -9 15 -37 -33 -12 -19 -31 -44 -43 -55 -21 -19 -21 -19 -17 1 2 11
10 19 17 17 8 -2 11 3 8 12 -4 9 -2 15 3 13 4 -1 20 21 34 48 l26 50 -25 -28
c-14 -15 -25 -36 -25 -45 0 -13 -2 -14 -9 -3 -6 9 -11 10 -15 2 -13 -20 -26
-12 -27 17 0 23 -2 24 -8 7 -8 -19 -8 -19 -19 0 -6 11 -12 14 -12 7 0 -7 9
-20 20 -29 25 -22 25 -30 1 -38 -14 -4 -17 -12 -13 -28 5 -20 4 -21 -12 -8 -9
8 -22 24 -28 35 -9 17 -8 19 3 9 7 -7 18 -13 23 -13 6 0 -2 11 -17 25 -15 14
-27 31 -27 37 0 6 11 1 25 -12 14 -13 25 -19 25 -12 0 6 -11 19 -25 30 -14 11
-25 28 -25 37 0 17 2 17 21 -1 16 -14 21 -15 17 -4 -2 8 -14 19 -26 25 -12 5
-22 15 -22 22 0 15 -7 15 -40 0z m237 -183 c-3 -3 -12 -4 -19 -1 -8 3 -5 6 6
6 11 1 17 -2 13 -5z m23 -33 c0 -15 -61 -32 -79 -21 -13 7 -10 9 14 10 17 0
37 5 45 10 19 12 20 12 20 1z m-220 -21 c0 -5 -15 -10 -32 -10 -25 0 -29 3
-18 10 20 13 50 13 50 0z m-53 -26 c-3 -3 -12 -4 -19 -1 -8 3 -5 6 6 6 11 1
17 -2 13 -5z"/>
<path d="M2605 2430 c-3 -4 -21 -11 -40 -14 -31 -6 -56 -29 -44 -41 2 -2 32
-7 67 -11 l62 -7 0 36 c0 26 -5 36 -20 40 -11 3 -22 2 -25 -3z"/>
<path d="M230 2395 c0 -23 4 -25 41 -25 l40 0 -3 -47 -3 -48 -40 0 c-34 0 -40
-3 -43 -22 -3 -23 12 -31 23 -13 4 7 36 8 86 4 69 -6 79 -5 79 10 0 12 -10 16
-40 16 l-40 0 0 45 0 45 40 0 c27 0 40 4 40 14 0 10 -21 15 -77 18 -45 3 -79
10 -81 17 -7 21 -22 11 -22 -14z"/>
<path d="M1825 2410 c-3 -5 1 -10 9 -10 8 0 18 5 21 10 3 6 -1 10 -9 10 -8 0
-18 -4 -21 -10z"/>
<path d="M2776 2396 c-36 -10 -67 -38 -55 -50 3 -3 32 -7 65 -8 l59 -3 3 31
c4 38 -15 46 -72 30z"/>
<path d="M4580 2400 c-9 -6 -10 -10 -3 -10 6 0 15 5 18 10 8 12 4 12 -15 0z"/>
<path d="M1870 2371 c0 -28 3 -31 20 -26 11 4 20 2 20 -4 0 -6 4 -11 10 -11 6
0 6 9 0 26 -6 14 -7 31 -3 37 5 8 2 8 -8 0 -12 -10 -18 -10 -27 -1 -9 9 -12 4
-12 -21z"/>
<path d="M3666 2391 c-3 -5 -22 -12 -42 -16 -31 -5 -34 -8 -20 -18 15 -11 15
-14 -5 -27 -50 -36 -51 -39 -5 -20 72 30 106 52 106 70 0 9 -3 11 -8 4 -4 -6
-16 -14 -26 -18 -19 -7 -19 -6 -1 14 10 11 15 20 12 20 -3 0 -8 -4 -11 -9z"/>
<path d="M3397 2370 c4 -17 12 -21 30 -17 18 3 25 -1 29 -19 6 -24 34 -23 34
1 0 7 6 16 13 18 20 9 -13 27 -50 27 -17 0 -38 3 -46 6 -12 4 -14 0 -10 -16z"/>
<path d="M1810 2339 c5 -17 8 -35 7 -39 -1 -4 21 -32 49 -61 34 -36 60 -55 78
-57 24 -2 25 0 16 18 -6 11 -36 36 -66 55 -39 25 -54 41 -50 51 3 9 1 12 -4 9
-9 -6 -14 10 -13 43 1 6 -5 12 -12 12 -10 0 -11 -8 -5 -31z m85 -107 c-3 -3
-16 5 -28 17 l-22 23 28 -17 c15 -10 25 -20 22 -23z"/>
<path d="M1190 2346 c0 -4 8 -21 17 -39 13 -24 18 -28 21 -15 2 10 -6 27 -17
40 -12 12 -21 18 -21 14z"/>
<path d="M4890 2330 c0 -6 -33 -10 -80 -10 -64 0 -80 -3 -80 -15 0 -10 11 -15
35 -15 28 0 35 -4 35 -20 0 -13 -12 -26 -35 -37 -32 -15 -50 -53 -25 -53 6 0
10 3 10 8 0 4 13 15 29 24 26 14 32 14 42 2 14 -17 61 -18 77 -2 14 14 16 128
2 128 -5 0 -10 -4 -10 -10z m-2 -67 c-6 -50 -67 -41 -68 10 0 13 8 17 36 17
33 0 35 -2 32 -27z"/>
<path d="M4385 2310 c-3 -6 10 -8 36 -5 55 5 63 15 11 15 -22 0 -44 -4 -47
-10z"/>
<path d="M1935 2299 c-4 -6 2 -13 14 -16 32 -8 14 -23 -22 -17 l-32 5 26 -15
c64 -37 106 -130 75 -165 -16 -18 -16 -19 9 -25 34 -9 75 -49 75 -73 -1 -14
-4 -12 -13 7 -13 27 -69 41 -82 20 -5 -8 1 -11 16 -10 43 4 50 0 64 -32 9 -22
14 -26 15 -14 0 15 6 17 30 14 26 -4 28 -3 17 11 -7 9 -22 33 -32 54 -11 21
-24 41 -28 44 -5 3 -4 -5 3 -17 18 -34 7 -32 -21 3 -19 25 -23 39 -18 62 4 17
7 24 8 16 0 -8 3 -12 6 -10 2 3 -2 25 -10 49 -7 25 -14 39 -14 31 -1 -18 -41
32 -41 51 0 15 -19 38 -31 38 -4 0 -11 -5 -14 -11z"/>
<path d="M3220 2280 c0 -5 6 -10 13 -10 8 0 9 -2 1 -8 -19 -12 -24 -46 -9 -65
10 -15 21 -17 44 -12 18 4 31 13 31 21 0 9 5 12 11 8 7 -4 10 1 7 12 -2 11
-11 19 -20 19 -9 0 -20 4 -25 9 -4 5 -3 6 5 2 6 -4 12 -3 12 3 0 12 -33 31
-54 31 -9 0 -16 -4 -16 -10z m57 -55 c9 -26 -6 -30 -27 -7 l-21 22 21 0 c11 0
23 -7 27 -15z"/>
<path d="M1849 2169 c-8 -15 -8 -19 0 -15 6 4 22 -4 35 -18 13 -14 26 -26 30
-26 15 0 0 36 -22 51 -12 8 -19 19 -15 22 3 4 1 7 -5 7 -6 0 -16 -10 -23 -21z"/>
<path d="M3200 2168 c0 -7 5 -20 10 -28 8 -13 11 -13 19 -1 5 7 14 10 20 7 16
-10 13 0 -5 18 -19 19 -44 21 -44 4z"/>
<path d="M3270 2152 c0 -4 9 -8 20 -9 11 -1 20 2 20 8 0 5 -9 9 -20 9 -11 0
-20 -4 -20 -8z"/>
<path d="M1850 2120 c0 -5 5 -10 11 -10 5 0 7 5 4 10 -3 6 -8 10 -11 10 -2 0
-4 -4 -4 -10z"/>
<path d="M3310 2119 c0 -5 5 -7 10 -4 6 3 10 8 10 11 0 2 -4 4 -10 4 -5 0 -10
-5 -10 -11z"/>
<path d="M220 2096 c0 -17 6 -18 66 -13 76 7 76 3 -7 -60 -72 -55 -67 -67 27
-59 51 4 82 2 90 -5 10 -9 15 -7 20 4 12 31 -6 40 -70 34 l-61 -6 63 57 c34
31 62 60 62 63 0 4 -43 6 -95 5 -86 -1 -95 -3 -95 -20z"/>
<path d="M3230 2094 c0 -9 5 -13 13 -9 6 4 0 -4 -15 -17 -37 -32 -35 -37 12
-28 39 7 40 7 24 -11 -19 -22 -3 -26 18 -5 8 7 24 17 36 20 32 11 17 26 -26
27 -20 1 -29 3 -19 6 24 6 21 20 -5 27 -34 9 -38 8 -38 -10z"/>
<path d="M3396 2079 c23 -24 36 -29 73 -29 l46 1 -40 21 c-22 12 -55 25 -74
29 l-33 7 28 -29z"/>
<path d="M3320 2090 c0 -5 5 -10 11 -10 5 0 7 5 4 10 -3 6 -8 10 -11 10 -2 0
-4 -4 -4 -10z"/>
<path d="M4745 2074 c-50 -54 -21 -146 49 -160 96 -17 154 107 79 166 -38 30
-98 27 -128 -6z m117 -21 c40 -36 8 -113 -49 -113 -34 0 -73 36 -73 67 0 53
80 84 122 46z"/>
<path d="M1955 2065 c-16 -49 -16 -51 0 -31 15 19 20 46 10 46 -3 0 -8 -7 -10
-15z"/>
<path d="M3152 2048 c-7 -7 -12 -17 -12 -23 0 -18 51 -86 60 -80 5 3 11 -3 14
-12 2 -10 2 0 -1 21 -5 32 -38 106 -47 106 -1 0 -7 -5 -14 -12z"/>
<path d="M1940 1985 c7 -9 15 -13 17 -11 7 7 -7 26 -19 26 -6 0 -6 -6 2 -15z"/>
<path d="M3127 1980 c3 -11 9 -17 14 -15 10 7 1 35 -11 35 -5 0 -6 -9 -3 -20z"/>
<path d="M3087 1939 c-20 -23 -24 -50 -5 -31 20 20 38 14 38 -14 0 -36 17 -21
18 16 1 40 -28 57 -51 29z"/>
<path d="M3151 1944 c0 -11 3 -14 6 -6 3 7 2 16 -1 19 -3 4 -6 -2 -5 -13z"/>
<path d="M2034 1939 c-3 -6 -1 -16 6 -22 10 -10 12 -8 6 8 -6 20 -6 20 9 1 16
-21 19 -18 9 8 -7 19 -20 21 -30 5z"/>
<path d="M2101 1937 c-6 -8 -8 -17 -4 -20 3 -4 1 -7 -5 -7 -7 0 -12 -10 -12
-22 0 -16 3 -19 11 -11 6 6 18 9 25 6 10 -4 11 -10 3 -25 -8 -14 -8 -23 0 -31
6 -6 11 -19 11 -28 0 -12 6 -16 20 -12 11 3 20 10 20 16 0 5 13 -7 29 -27 18
-23 32 -32 36 -26 4 6 17 15 29 20 19 9 18 9 -7 7 -21 -1 -32 5 -44 25 -16 25
-16 28 0 46 16 17 15 20 -11 44 -15 14 -32 24 -39 21 -6 -2 -17 5 -23 16 -12
24 -23 26 -39 8z m34 -18 c11 -17 -1 -21 -15 -4 -8 9 -8 15 -2 15 6 0 14 -5
17 -11z m65 -64 c0 -5 -5 -3 -10 5 -5 8 -10 20 -10 25 0 6 5 3 10 -5 5 -8 10
-19 10 -25z m-20 -6 c0 -6 -5 -7 -12 -3 -7 5 -9 2 -5 -9 3 -8 0 -20 -7 -27
-11 -8 -15 -4 -18 19 -3 22 0 31 11 34 20 4 31 -1 31 -14z"/>
<path d="M4005 1911 c-28 -16 -70 -50 -93 -75 -23 -25 -50 -46 -59 -46 -11 0
-8 -6 11 -21 14 -11 26 -29 26 -40 0 -13 7 -19 23 -19 53 0 267 -21 317 -31
71 -15 147 -50 185 -86 59 -56 68 -57 31 -5 -21 28 -41 50 -46 47 -4 -3 -10 3
-12 13 -7 27 -122 100 -187 119 -31 9 -96 21 -146 27 l-89 11 44 32 c25 18 50
36 56 41 5 5 21 15 33 22 18 9 21 14 10 20 -7 5 -25 2 -41 -6 -29 -15 -37 -7
-16 14 18 18 8 14 -47 -17z"/>
<path d="M2493 1923 c-20 -8 -15 -22 6 -16 25 6 35 -12 16 -29 -58 -49 -59
-58 -5 -58 22 0 40 4 40 8 0 5 -13 7 -30 4 -36 -5 -39 10 -5 26 29 13 35 56 9
66 -9 3 -16 6 -17 5 -1 0 -8 -3 -14 -6z"/>
<path d="M2588 1919 c-12 -7 -18 -22 -18 -48 0 -75 62 -81 68 -7 3 34 -10 66
-27 66 -3 0 -14 -5 -23 -11z m37 -49 c0 -40 -29 -55 -40 -21 -9 30 4 63 23 59
12 -2 17 -14 17 -38z"/>
<path d="M2683 1923 c-20 -8 -15 -22 6 -16 25 6 35 -12 16 -29 -58 -49 -59
-58 -5 -58 22 0 40 4 40 10 0 5 -13 7 -30 4 -36 -8 -40 8 -5 24 29 13 35 56 9
66 -9 3 -16 6 -17 5 -1 0 -8 -3 -14 -6z"/>
<path d="M3230 1918 c0 -9 5 -20 10 -23 13 -8 13 5 0 25 -8 13 -10 13 -10 -2z"/>
<path d="M2760 1911 c0 -5 10 -7 23 -3 20 5 21 4 7 -12 -12 -16 -12 -19 3 -27
27 -16 22 -42 -8 -37 -27 6 -34 -6 -10 -16 37 -14 66 25 40 54 -11 12 -13 20
-6 25 21 12 11 25 -19 25 -16 0 -30 -4 -30 -9z"/>
<path d="M3046 1891 c-9 -14 -7 -18 14 -21 30 -4 50 0 50 11 0 7 -9 9 -24 5
-15 -4 -26 -1 -28 6 -3 9 -6 9 -12 -1z"/>
<path d="M4217 1889 c7 -7 15 -10 18 -7 3 3 -2 9 -12 12 -14 6 -15 5 -6 -5z"/>
<path d="M4258 1873 c7 -3 16 -2 19 1 4 3 -2 6 -13 5 -11 0 -14 -3 -6 -6z"/>
<path d="M408 1860 c-4 -14 -127 -39 -134 -28 -11 18 -20 6 -16 -22 4 -29 26
-42 34 -20 4 13 128 40 128 28 0 -4 6 -8 13 -8 9 0 12 10 9 30 -4 29 -26 42
-34 20z"/>
<path d="M3000 1829 c0 -5 15 -10 33 -10 21 -1 25 -3 12 -6 -23 -6 -45 -22
-45 -33 0 -5 10 -6 22 -2 21 5 21 4 5 -18 -9 -14 -27 -30 -39 -37 -23 -12 -23
-12 5 -13 15 0 26 3 25 8 -2 4 7 21 20 37 19 24 30 29 62 28 85 -4 41 42 -47
49 -29 3 -53 1 -53 -3z"/>
<path d="M4702 1817 c-22 -26 -25 -67 -7 -87 28 -31 59 -25 92 17 21 25 35 34
46 30 21 -8 22 -31 2 -51 -16 -16 -20 -36 -7 -36 18 0 42 38 42 66 0 63 -46
71 -96 18 -21 -24 -38 -34 -48 -31 -20 8 -21 41 -1 60 8 8 11 17 8 21 -10 9
-20 7 -31 -7z"/>
<path d="M2075 1800 c22 -24 50 -27 41 -4 -3 9 -6 18 -6 20 0 2 -12 4 -27 4
-25 0 -26 0 -8 -20z"/>
<path d="M1022 1798 c-19 -19 -14 -33 6 -16 9 9 26 18 37 21 16 4 15 5 -5 6
-15 0 -31 -4 -38 -11z"/>
<path d="M1128 1803 c6 -2 18 -2 25 0 6 3 1 5 -13 5 -14 0 -19 -2 -12 -5z"/>
<path d="M2031 1794 c0 -11 3 -14 6 -6 3 7 2 16 -1 19 -3 4 -6 -2 -5 -13z"/>
<path d="M1235 1790 c-35 -7 -37 -8 -17 -15 14 -5 21 -13 18 -21 -9 -23 8 -15
32 17 13 16 20 28 15 28 -4 -1 -26 -5 -48 -9z"/>
<path d="M2297 1783 c-12 -12 -7 -23 7 -17 11 4 13 0 9 -17 -6 -20 -4 -21 32
-15 36 7 37 7 33 -18 -3 -16 -1 -26 6 -25 27 3 38 -2 33 -15 -7 -19 21 -42 61
-51 17 -3 32 -11 32 -16 0 -6 -8 -6 -19 1 -35 18 -40 11 -20 -30 11 -23 24
-38 29 -35 13 8 42 114 34 127 -4 6 -3 8 2 5 6 -3 16 -2 22 2 10 6 9 11 -3 21
-12 10 -15 10 -15 0 0 -9 -4 -9 -16 1 -9 8 -28 12 -42 11 -13 -2 -22 0 -19 5
3 5 -5 10 -18 11 -13 1 -27 -3 -30 -8 -10 -17 -25 -11 -25 10 0 14 -7 20 -24
20 -15 0 -26 7 -29 20 -5 19 -27 27 -40 13z m193 -123 c0 -5 -8 -10 -17 -10
-15 0 -16 2 -3 10 19 12 20 12 20 0z"/>
<path d="M3277 1750 c4 -16 14 -20 49 -20 24 0 44 4 44 10 0 14 -35 30 -68 30
-25 0 -29 -3 -25 -20z"/>
<path d="M995 1750 c-3 -5 -1 -10 4 -10 6 0 11 5 11 10 0 6 -2 10 -4 10 -3 0
-8 -4 -11 -10z"/>
<path d="M3175 1753 c-31 -8 -58 -30 -46 -37 6 -4 24 3 41 15 24 19 39 33 28
28 -2 -1 -12 -4 -23 -6z"/>
<path d="M2147 1739 c7 -7 15 -10 18 -7 3 3 -2 9 -12 12 -14 6 -15 5 -6 -5z"/>
<path d="M2256 1735 c-3 -8 -1 -15 4 -15 13 0 22 18 11 24 -5 3 -11 -1 -15 -9z"/>
<path d="M2925 1740 c3 -5 8 -10 11 -10 2 0 4 5 4 10 0 6 -5 10 -11 10 -5 0
-7 -4 -4 -10z"/>
<path d="M2180 1730 c0 -5 5 -10 11 -10 5 0 7 5 4 10 -3 6 -8 10 -11 10 -2 0
-4 -4 -4 -10z"/>
<path d="M430 1719 c0 -7 6 -17 14 -23 19 -15 31 -70 14 -64 -54 21 -158 51
-162 47 -6 -5 23 -110 33 -121 3 -4 13 -3 21 2 11 8 12 12 3 18 -13 8 -36 62
-30 69 3 2 41 -10 86 -26 44 -16 83 -26 86 -21 3 5 -2 36 -11 69 -13 46 -22
61 -36 61 -10 0 -18 -5 -18 -11z"/>
<path d="M2730 1713 c-8 -3 -18 -11 -22 -17 -5 -8 -8 -7 -8 2 0 6 -4 12 -9 12
-5 0 -4 -12 3 -27 7 -16 18 -39 24 -53 8 -19 11 -21 11 -7 1 10 -3 26 -8 35
-13 24 12 47 29 27 10 -12 10 -18 1 -29 -8 -10 -9 -16 -1 -21 6 -3 8 -10 5
-15 -3 -5 4 -14 15 -20 13 -7 20 -7 20 0 0 5 -4 10 -10 10 -5 0 -7 6 -4 14 7
19 72 49 90 42 17 -7 64 3 64 13 0 3 -29 7 -65 8 -52 2 -65 0 -65 -12 0 -8 -5
-15 -11 -15 -6 0 -9 10 -7 23 2 12 9 21 16 20 6 -2 12 2 12 7 0 11 -55 12 -80
3z"/>
<path d="M1133 1684 c-27 -31 -28 -40 -6 -48 13 -5 14 -9 4 -19 -9 -9 -14 -9
-21 3 -8 12 -10 12 -10 1 0 -7 -19 -33 -42 -56 -48 -47 -76 -48 -74 -2 1 18
-3 27 -14 27 -13 0 -13 1 0 10 13 9 13 11 0 20 -23 15 -26 13 -28 -25 -2 -19
6 -50 18 -72 11 -21 20 -43 20 -49 0 -6 7 -17 15 -24 9 -7 14 -19 11 -27 -3
-7 -2 -13 3 -13 4 0 20 23 35 50 15 28 41 65 58 83 58 62 97 136 65 124 -10
-4 -13 2 -9 19 5 30 2 30 -25 -2z"/>
<path d="M2255 1696 c64 -13 98 -10 73 5 -7 5 -40 8 -73 8 l-60 -1 60 -12z"/>
<path d="M2947 1703 c-4 -3 -7 -11 -7 -17 0 -6 5 -5 12 2 6 6 9 14 7 17 -3 3
-9 2 -12 -2z"/>
<path d="M3350 1653 c0 -28 16 -30 25 -4 3 11 18 22 33 24 15 3 9 4 -15 4 -38
-1 -43 -4 -43 -24z"/>
<path d="M3950 1677 c0 -18 24 -55 43 -67 19 -11 20 -11 11 1 -6 8 -20 27 -32
43 -12 16 -22 26 -22 23z"/>
<path d="M2250 1660 c-14 -3 -26 -10 -27 -16 -1 -6 8 -9 21 -7 13 3 28 -2 35
-11 16 -19 31 -21 31 -3 0 22 -33 43 -60 37z"/>
<path d="M2563 1650 c-1 -15 4 -20 23 -20 15 0 24 6 24 15 0 8 -4 15 -9 15 -5
0 -16 2 -23 5 -9 4 -14 -2 -15 -15z"/>
<path d="M2190 1649 c0 -5 5 -7 10 -4 6 3 10 8 10 11 0 2 -4 4 -10 4 -5 0 -10
-5 -10 -11z"/>
<path d="M2370 1647 c14 -7 34 -16 45 -20 17 -6 17 -4 -4 13 -13 11 -33 20
-45 20 -20 0 -19 -1 4 -13z"/>
<path d="M4654 1628 c-4 -6 2 -19 14 -28 34 -28 11 -90 -34 -90 -15 0 -24 -6
-24 -16 0 -11 5 -14 16 -10 9 3 54 6 100 6 74 0 84 2 84 18 0 10 -28 39 -65
67 -36 27 -65 52 -65 57 0 12 -18 10 -26 -4z m116 -110 c0 -10 -67 -11 -73 0
-3 4 -1 17 4 30 l9 23 30 -22 c16 -13 30 -26 30 -31z"/>
<path d="M2815 1620 c-3 -5 -1 -10 4 -10 6 0 11 5 11 10 0 6 -2 10 -4 10 -3 0
-8 -4 -11 -10z"/>
<path d="M2365 1600 c-3 -5 -19 -10 -36 -10 -37 0 -36 -6 3 -54 l31 -38 -31
16 -31 16 11 -32 c7 -18 22 -44 35 -58 20 -21 25 -23 33 -10 5 8 8 21 5 27 -2
7 9 27 24 44 l28 31 -4 -34 c-9 -79 -13 -73 46 -71 30 1 55 4 57 6 2 2 1 26
-2 54 -6 42 -9 50 -25 46 -10 -3 -25 4 -35 16 -10 11 -21 18 -25 15 -5 -2 -16
7 -25 21 -16 25 -48 33 -59 15z"/>
<path d="M2747 1579 c7 -7 15 -10 18 -7 3 3 -2 9 -12 12 -14 6 -15 5 -6 -5z"/>
<path d="M4090 1580 c-8 -5 -10 -10 -5 -10 6 0 17 5 25 10 8 5 11 10 5 10 -5
0 -17 -5 -25 -10z"/>
<path d="M4112 1530 l-32 -20 33 -32 c44 -45 67 -62 67 -51 0 5 -8 18 -17 29
-35 40 -41 58 -24 71 28 20 6 23 -27 3z"/>
<path d="M1415 1510 c3 -5 8 -10 11 -10 2 0 4 5 4 10 0 6 -5 10 -11 10 -5 0
-7 -4 -4 -10z"/>
<path d="M3985 1510 c-28 -7 -27 -8 13 -9 23 0 42 4 42 9 0 11 -11 11 -55 0z"/>
<path d="M409 1471 c-86 -86 36 -216 128 -137 23 20 28 32 28 71 0 39 -5 51
-28 71 -40 34 -90 32 -128 -5z m113 -18 c26 -23 24 -78 -4 -97 -75 -53 -149
28 -90 97 19 22 70 22 94 0z"/>
<path d="M3489 1450 c-19 -16 -29 -29 -22 -30 15 0 70 47 62 54 -3 3 -21 -8
-40 -24z"/>
<path d="M4025 1460 c-16 -7 -17 -9 -3 -9 9 -1 24 -4 32 -7 12 -5 15 -2 10 10
-7 18 -10 18 -39 6z"/>
<path d="M3619 1455 c-1 -5 -1 -13 0 -17 0 -4 -5 -5 -12 -2 -13 5 -113 -54
-105 -62 3 -2 19 -1 37 2 17 4 29 9 27 12 -7 7 63 44 72 38 5 -3 14 0 22 6 12
8 12 9 -2 4 -10 -3 -22 2 -27 12 -6 9 -11 13 -12 7z"/>
<path d="M3944 1412 c-5 -19 -12 -22 -30 -18 -23 6 -24 5 -20 -41 2 -27 5 -48
6 -48 2 0 3 -11 4 -25 2 -25 1 -26 -47 -16 -57 12 -59 10 -76 -72 -36 -168
-73 -305 -96 -364 -5 -13 2 -19 34 -28 l41 -11 0 -152 c0 -106 4 -157 12 -165
8 -8 47 -12 110 -12 l98 0 0 228 -1 227 -36 -85 c-19 -47 -36 -86 -38 -88 -2
-2 -12 1 -23 7 -20 11 -20 11 5 88 14 43 41 145 60 227 19 83 40 155 47 160 7
6 16 19 20 30 5 15 2 17 -13 13 -27 -7 -38 38 -16 63 15 16 14 18 0 24 -9 3
-14 9 -12 13 3 5 -1 22 -8 38 -13 30 -14 30 -21 7z"/>
<path d="M4561 1374 c-25 -32 -27 -57 -5 -78 22 -23 50 -20 88 9 42 32 56 32
56 -1 0 -17 -6 -28 -20 -31 -21 -6 -26 -18 -10 -28 15 -9 48 12 55 36 10 31
-2 67 -26 74 -13 5 -33 -2 -59 -19 -22 -14 -46 -26 -55 -26 -22 0 -19 46 5 63
11 8 17 17 13 20 -11 12 -21 8 -42 -19z"/>
<path d="M4436 1347 c3 -10 9 -15 12 -12 3 3 0 11 -7 18 -10 9 -11 8 -5 -6z"/>
<path d="M2342 1294 c-42 -21 -62 -60 -62 -119 0 -38 6 -52 34 -83 32 -34 39
-37 88 -37 67 0 119 28 96 51 -13 13 -18 13 -44 -1 -41 -21 -69 -19 -101 9
-39 34 -39 98 0 132 34 29 70 31 97 4 25 -25 50 -26 50 -2 0 50 -96 77 -158
46z"/>
<path d="M2540 1290 c0 -11 5 -20 10 -20 6 0 10 -37 10 -90 0 -53 -4 -90 -10
-90 -20 0 -9 -28 13 -34 44 -12 67 -7 67 14 0 11 -4 20 -10 20 -6 0 -10 37
-10 90 0 53 4 90 10 90 6 0 10 9 10 20 0 17 -7 20 -45 20 -38 0 -45 -3 -45
-20z"/>
<path d="M2670 1288 c0 -10 5 -18 11 -18 7 0 10 -34 7 -107 l-3 -108 57 -3
c66 -3 95 9 109 45 7 18 5 33 -6 56 -10 21 -12 34 -5 41 5 5 10 25 10 43 0 44
-28 60 -112 65 -60 3 -68 2 -68 -14z m134 -43 c10 -28 -5 -45 -40 -45 -29 0
-34 3 -34 23 0 13 3 27 7 30 12 13 61 7 67 -8z m1 -120 c0 -27 -3 -30 -37 -33
-38 -3 -38 -3 -38 33 0 36 0 36 38 33 34 -3 37 -6 37 -33z"/>
<path d="M2030 1270 c-51 -51 15 -125 76 -85 45 29 21 105 -34 105 -12 0 -31
-9 -42 -20z m68 -44 c-2 -15 -10 -21 -28 -21 -31 0 -40 33 -14 52 22 16 46 -1
42 -31z"/>
<path d="M2905 1281 c-4 -7 -1 -18 5 -26 9 -11 10 -42 5 -114 l-7 -99 66 -7
c79 -9 96 -3 96 30 0 18 -5 25 -20 25 -11 0 -20 -4 -20 -10 0 -12 -66 -14 -73
-2 -3 4 -3 19 0 35 5 24 10 27 44 27 27 0 39 4 39 14 0 16 -21 26 -57 26 -19
0 -24 4 -19 16 3 9 6 24 6 35 0 15 7 19 30 19 18 0 33 -6 36 -15 10 -26 44
-18 44 9 0 14 -3 27 -7 29 -5 3 -42 8 -84 12 -54 5 -79 4 -84 -4z"/>
<path d="M1265 1270 c-59 -5 -60 -6 -32 -19 15 -8 30 -24 33 -35 43 -177 78
-305 98 -365 28 -80 27 -85 -24 -97 -14 -4 -30 -10 -36 -15 -7 -5 -17 10 -29
44 -55 155 -55 156 -55 -95 l0 -228 91 0 c135 0 129 -8 129 175 l0 154 54 12
c78 17 79 18 60 70 -9 24 -38 125 -63 224 l-46 180 -60 0 c-33 1 -87 -2 -120
-5z"/>
<path d="M1878 1262 c-28 -12 -62 -62 -50 -74 8 -8 15 -8 26 1 19 16 23 8 31
-71 7 -67 7 -67 -19 -74 -15 -3 -25 -11 -23 -18 4 -10 115 -12 144 -1 21 7 2
35 -23 35 -29 0 -29 -1 -45 118 -6 50 -15 92 -18 91 -3 0 -14 -3 -23 -7z"/>
<path d="M572 1244 c-16 -11 -22 -25 -22 -52 0 -46 -13 -67 -35 -58 -12 4 -16
15 -13 38 2 24 -1 33 -12 33 -21 0 -24 -42 -5 -71 13 -20 23 -25 48 -22 30 3
33 6 43 58 14 76 54 82 58 9 1 -27 20 -24 24 4 3 25 -32 77 -52 77 -6 0 -22
-7 -34 -16z"/>
<path d="M3257 1244 c-4 -4 -7 -18 -7 -31 0 -16 6 -23 19 -23 11 0 21 5 23 11
2 7 13 9 24 5 22 -7 21 -21 -10 -189 -5 -25 -3 -28 16 -25 18 2 24 12 30 48
23 135 28 150 54 150 15 0 24 -6 24 -15 0 -8 9 -15 21 -15 16 0 20 5 17 27 -3
25 -9 28 -63 39 -99 20 -141 25 -148 18z"/>
<path d="M1655 1226 c-43 -10 -50 -16 -53 -39 -3 -23 0 -27 22 -27 14 0 25 5
24 11 -2 7 9 15 25 20 15 4 27 6 27 4 0 -1 -7 -19 -15 -38 -23 -56 -20 -65 23
-69 29 -2 38 -8 40 -24 5 -36 -36 -56 -84 -40 -16 5 -23 2 -27 -13 -9 -37 83
-45 127 -10 48 38 24 129 -34 129 l-20 0 20 40 c37 72 27 80 -75 56z"/>
<path d="M1150 1195 c-11 -13 -5 -34 35 -135 27 -66 50 -118 51 -117 5 4 -58
251 -66 260 -4 4 -13 1 -20 -8z"/>
<path d="M4476 1201 c-4 -5 -2 -12 3 -15 5 -4 12 -2 15 3 4 5 2 12 -3 15 -5 4
-12 2 -15 -3z"/>
<path d="M3540 1172 c-47 -23 -72 -74 -67 -132 4 -35 13 -51 41 -77 31 -28 43
-33 87 -33 46 0 55 4 90 39 33 33 39 45 39 82 0 56 -30 106 -75 125 -45 18
-72 18 -115 -4z m109 -48 c42 -35 43 -84 2 -125 -33 -32 -65 -37 -99 -13 -51
36 -48 119 6 149 39 20 56 18 91 -11z"/>
<path d="M4527 1173 c-8 -7 81 -63 101 -63 27 0 9 21 -38 45 -55 28 -54 28
-63 18z"/>
<path d="M2073 1153 c-24 -2 -43 -9 -43 -14 0 -15 103 -7 108 9 2 6 -2 11 -10
10 -7 -1 -32 -3 -55 -5z"/>
<path d="M3116 1132 c-17 -16 -1 -30 40 -37 47 -7 78 6 59 24 -12 10 -91 21
-99 13z"/>
<path d="M780 933 c0 -5 16 -33 35 -63 l35 -55 0 63 0 62 -35 0 c-19 0 -35 -3
-35 -7z"/>
<path d="M2606 924 c-10 -27 -7 -112 5 -120 15 -9 56 -103 62 -143 3 -18 7
-34 9 -35 53 -39 98 -49 98 -21 0 9 7 18 15 21 8 4 15 11 15 18 0 6 9 17 19
23 21 13 36 79 32 148 -2 58 -2 58 4 86 7 25 5 26 -52 32 -51 6 -60 4 -72 -13
-18 -26 -35 -26 -21 0 10 19 8 20 -49 20 -44 0 -60 -4 -65 -16z"/>
<path d="M4350 878 l0 -63 27 45 c14 25 33 53 41 63 14 16 12 17 -26 17 l-42
0 0 -62z"/>
<path d="M2287 916 c-3 -8 5 -28 18 -45 l23 -32 8 28 c11 41 12 63 3 63 -5 0
-9 -8 -9 -17 -1 -17 -1 -17 -11 0 -12 21 -25 22 -32 3z"/>
<path d="M1240 915 c1 -6 7 -21 16 -35 l15 -25 -7 25 c-7 26 -24 52 -24 35z"/>
<path d="M2180 905 c-7 -8 -15 -13 -19 -11 -3 2 -22 -9 -41 -26 -25 -21 -28
-25 -8 -13 15 9 31 14 36 11 10 -6 58 41 50 49 -3 3 -11 -1 -18 -10z"/>
<path d="M2218 908 c7 -7 13 -32 14 -57 l1 -46 6 45 c3 25 3 47 -2 48 -4 2 -5
8 -1 13 3 5 -3 9 -12 9 -14 0 -15 -3 -6 -12z"/>
<path d="M2057 899 c-9 -5 -22 -7 -27 -4 -6 4 -9 2 -8 -4 2 -5 -6 -17 -17 -25
-20 -16 -20 -16 0 -9 16 6 14 -1 -13 -34 -26 -34 -29 -42 -16 -47 25 -9 90 30
103 62 7 17 21 39 32 51 l20 21 -28 0 c-15 0 -36 -5 -46 -11z"/>
<path d="M2197 877 c-11 -29 -9 -43 4 -30 6 6 9 19 7 29 -3 18 -4 18 -11 1z"/>
<path d="M2370 860 c0 -11 4 -20 9 -20 5 0 7 9 4 20 -3 11 -7 20 -9 20 -2 0
-4 -9 -4 -20z"/>
<path d="M2274 854 c3 -9 6 -20 6 -25 0 -5 5 -9 11 -9 5 0 7 5 4 10 -3 6 -1
10 6 10 8 0 8 4 -1 15 -16 20 -34 19 -26 -1z"/>
<path d="M1750 836 c-6 -17 -3 -23 22 -30 20 -6 33 -5 40 2 9 9 9 12 -2 12
-10 0 -9 4 3 18 16 17 15 18 -19 18 -27 0 -38 -5 -44 -20z"/>
<path d="M2111 781 c-13 -18 -21 -34 -19 -37 8 -8 50 44 46 57 -2 7 -14 -1
-27 -20z"/>
<path d="M3171 793 c6 -10 23 -27 37 -37 21 -15 20 -12 -7 17 -38 41 -47 46
-30 20z"/>
<path d="M2208 770 c-12 -38 -10 -66 3 -53 6 6 9 26 7 44 -3 32 -3 33 -10 9z"/>
<path d="M2350 782 c0 -11 69 -47 76 -39 3 3 -12 15 -35 27 -23 11 -41 17 -41
12z"/>
<path d="M3240 732 c0 -4 19 -20 42 -37 57 -41 72 -50 64 -37 -9 15 -106 83
-106 74z"/>
<path d="M2083 685 c-3 -9 -3 -18 -1 -21 3 -3 8 4 11 16 6 23 -1 27 -10 5z"/>
<path d="M2573 600 c-32 -13 -28 -30 6 -30 24 0 28 3 24 20 -3 11 -6 20 -7 19
0 0 -11 -4 -23 -9z"/>
<path d="M807 520 l-37 -60 40 0 40 0 0 60 c0 33 -1 60 -3 60 -1 0 -19 -27
-40 -60z"/>
<path d="M4350 522 l0 -62 40 0 41 0 -37 58 c-20 31 -38 59 -40 61 -2 2 -4
-23 -4 -57z"/>
</g>
</svg>
